<?xml version="1.0" encoding="UTF-8" standalone="no"?>
<!DOCTYPE svg PUBLIC "-//W3C//DTD SVG 1.1//EN"
 "http://www.w3.org/Graphics/SVG/1.1/DTD/svg11.dtd">
<!-- Generated by graphviz version 7.1.0 (20230121.1956)
 -->
<!-- Pages: 1 -->
<svg width="1805pt" height="548pt"
 viewBox="0.00 0.00 1805.29 548.00" xmlns="http://www.w3.org/2000/svg" xmlns:xlink="http://www.w3.org/1999/xlink">
<g id="graph0" class="graph" transform="scale(1 1) rotate(0) translate(4 544)">
<polygon fill="white" stroke="none" points="-4,4 -4,-544 1801.29,-544 1801.29,4 -4,4"/>
<!-- 0 -->
<g id="node1" class="node">
<title>0</title>
<polygon fill="none" stroke="black" points="1199.25,-540 1043.25,-540 1043.25,-504 1199.25,-504 1199.25,-540"/>
<text text-anchor="middle" x="1121.25" y="-518.3" font-family="Times,serif" font-size="14.00">sycamore_datengenerator</text>
</g>
<!-- 2 -->
<g id="node3" class="node">
<title>2</title>
<ellipse fill="none" stroke="black" cx="669.25" cy="-450" rx="38.19" ry="18"/>
<text text-anchor="middle" x="669.25" y="-446.3" font-family="Times,serif" font-size="14.00">reqwest</text>
</g>
<!-- 0&#45;&gt;2 -->
<g id="edge1" class="edge">
<title>0&#45;&gt;2</title>
<path fill="none" stroke="black" d="M1042.77,-508.85C948.63,-494.27 793.84,-470.3 716.42,-458.31"/>
<polygon fill="black" stroke="black" points="717.04,-454.86 706.62,-456.79 715.97,-461.78 717.04,-454.86"/>
</g>
<!-- 4 -->
<g id="node5" class="node">
<title>4</title>
<ellipse fill="none" stroke="black" cx="1121.25" cy="-450" rx="72.29" ry="18"/>
<text text-anchor="middle" x="1121.25" y="-446.3" font-family="Times,serif" font-size="14.00">sycamore&#45;futures</text>
</g>
<!-- 0&#45;&gt;4 -->
<g id="edge2" class="edge">
<title>0&#45;&gt;4</title>
<path fill="none" stroke="black" d="M1121.25,-503.7C1121.25,-496.41 1121.25,-487.73 1121.25,-479.54"/>
<polygon fill="black" stroke="black" points="1124.75,-479.62 1121.25,-469.62 1117.75,-479.62 1124.75,-479.62"/>
</g>
<!-- 5 -->
<g id="node6" class="node">
<title>5</title>
<ellipse fill="none" stroke="black" cx="1285.25" cy="-450" rx="68.79" ry="18"/>
<text text-anchor="middle" x="1285.25" y="-446.3" font-family="Times,serif" font-size="14.00">sycamore&#45;router</text>
</g>
<!-- 0&#45;&gt;5 -->
<g id="edge3" class="edge">
<title>0&#45;&gt;5</title>
<path fill="none" stroke="black" d="M1162.21,-503.52C1185.84,-493.43 1215.61,-480.72 1239.94,-470.34"/>
<polygon fill="black" stroke="black" points="1241.14,-473.63 1248.96,-466.49 1238.39,-467.19 1241.14,-473.63"/>
</g>
<!-- 1 -->
<g id="node2" class="node">
<title>1</title>
<ellipse fill="none" stroke="black" cx="1728.25" cy="-162" rx="30.59" ry="18"/>
<text text-anchor="middle" x="1728.25" y="-158.3" font-family="Times,serif" font-size="14.00">js&#45;sys</text>
</g>
<!-- 6 -->
<g id="node7" class="node">
<title>6</title>
<ellipse fill="none" stroke="black" cx="1734.25" cy="-90" rx="63.09" ry="18"/>
<text text-anchor="middle" x="1734.25" y="-86.3" font-family="Times,serif" font-size="14.00">wasm&#45;bindgen</text>
</g>
<!-- 1&#45;&gt;6 -->
<g id="edge4" class="edge">
<title>1&#45;&gt;6</title>
<path fill="none" stroke="black" d="M1729.73,-143.7C1730.35,-136.41 1731.1,-127.73 1731.8,-119.54"/>
<polygon fill="black" stroke="black" points="1735.28,-119.87 1732.65,-109.61 1728.31,-119.28 1735.28,-119.87"/>
</g>
<!-- 7 -->
<g id="node8" class="node">
<title>7</title>
<ellipse fill="none" stroke="black" cx="401.25" cy="-378" rx="35.19" ry="18"/>
<text text-anchor="middle" x="401.25" y="-374.3" font-family="Times,serif" font-size="14.00">base64</text>
</g>
<!-- 2&#45;&gt;7 -->
<g id="edge5" class="edge">
<title>2&#45;&gt;7</title>
<path fill="none" stroke="black" d="M634.31,-442.28C589.91,-433.38 511.09,-416.41 445.25,-396 443.13,-395.35 440.98,-394.64 438.81,-393.9"/>
<polygon fill="black" stroke="black" points="440.05,-390.63 429.46,-390.53 437.68,-397.21 440.05,-390.63"/>
</g>
<!-- 10 -->
<g id="node11" class="node">
<title>10</title>
<ellipse fill="none" stroke="black" cx="933.25" cy="-234" rx="50.09" ry="18"/>
<text text-anchor="middle" x="933.25" y="-230.3" font-family="Times,serif" font-size="14.00">futures&#45;util</text>
</g>
<!-- 2&#45;&gt;10 -->
<g id="edge6" class="edge">
<title>2&#45;&gt;10</title>
<path fill="none" stroke="black" d="M707.25,-446.94C772.66,-442.53 902.21,-429.66 930.25,-396 961.27,-358.75 951.64,-298.1 942.2,-262.84"/>
<polygon fill="black" stroke="black" points="945.61,-262.02 939.48,-253.38 938.88,-263.95 945.61,-262.02"/>
</g>
<!-- 11 -->
<g id="node12" class="node">
<title>11</title>
<ellipse fill="none" stroke="black" cx="481.25" cy="-378" rx="27" ry="18"/>
<text text-anchor="middle" x="481.25" y="-374.3" font-family="Times,serif" font-size="14.00">http</text>
</g>
<!-- 2&#45;&gt;11 -->
<g id="edge7" class="edge">
<title>2&#45;&gt;11</title>
<path fill="none" stroke="black" d="M638.03,-439.19C607.05,-429.2 558.37,-412.83 517.25,-396 515.73,-395.38 514.18,-394.73 512.62,-394.05"/>
<polygon fill="black" stroke="black" points="514.33,-390.99 503.78,-390.07 511.46,-397.37 514.33,-390.99"/>
</g>
<!-- 13 -->
<g id="node14" class="node">
<title>13</title>
<ellipse fill="none" stroke="black" stroke-dasharray="5,2" cx="738.25" cy="-378" rx="48.19" ry="18"/>
<text text-anchor="middle" x="738.25" y="-374.3" font-family="Times,serif" font-size="14.00">serde_json</text>
</g>
<!-- 2&#45;&gt;13 -->
<g id="edge8" class="edge">
<title>2&#45;&gt;13</title>
<path fill="none" stroke="black" stroke-dasharray="1,5" d="M684.9,-433.12C693.6,-424.29 704.6,-413.13 714.35,-403.24"/>
<polygon fill="black" stroke="black" points="716.58,-405.96 721.11,-396.38 711.6,-401.05 716.58,-405.96"/>
</g>
<!-- 14 -->
<g id="node15" class="node">
<title>14</title>
<ellipse fill="none" stroke="black" cx="599.25" cy="-378" rx="72.59" ry="18"/>
<text text-anchor="middle" x="599.25" y="-374.3" font-family="Times,serif" font-size="14.00">serde_urlencoded</text>
</g>
<!-- 2&#45;&gt;14 -->
<g id="edge9" class="edge">
<title>2&#45;&gt;14</title>
<path fill="none" stroke="black" d="M653.71,-433.46C645.02,-424.78 634,-413.75 624.14,-403.89"/>
<polygon fill="black" stroke="black" points="626.82,-401.63 617.28,-397.03 621.87,-406.58 626.82,-401.63"/>
</g>
<!-- 15 -->
<g id="node16" class="node">
<title>15</title>
<ellipse fill="none" stroke="black" cx="863.25" cy="-378" rx="58.49" ry="18"/>
<text text-anchor="middle" x="863.25" y="-374.3" font-family="Times,serif" font-size="14.00">tower&#45;service</text>
</g>
<!-- 2&#45;&gt;15 -->
<g id="edge10" class="edge">
<title>2&#45;&gt;15</title>
<path fill="none" stroke="black" d="M698.71,-438.37C729.77,-427.16 779.19,-409.33 815.76,-396.13"/>
<polygon fill="black" stroke="black" points="816.55,-399.57 824.76,-392.88 814.17,-392.99 816.55,-399.57"/>
</g>
<!-- 16 -->
<g id="node17" class="node">
<title>16</title>
<ellipse fill="none" stroke="black" cx="321.25" cy="-378" rx="27" ry="18"/>
<text text-anchor="middle" x="321.25" y="-374.3" font-family="Times,serif" font-size="14.00">url</text>
</g>
<!-- 2&#45;&gt;16 -->
<g id="edge11" class="edge">
<title>2&#45;&gt;16</title>
<path fill="none" stroke="black" d="M631.97,-445.98C572.67,-440.44 453.68,-426.33 357.25,-396 355.64,-395.49 354.01,-394.93 352.38,-394.33"/>
<polygon fill="black" stroke="black" points="353.77,-391.11 343.19,-390.47 351.06,-397.57 353.77,-391.11"/>
</g>
<!-- 3 -->
<g id="node4" class="node">
<title>3</title>
<ellipse fill="none" stroke="black" cx="1332.25" cy="-378" rx="44.69" ry="18"/>
<text text-anchor="middle" x="1332.25" y="-374.3" font-family="Times,serif" font-size="14.00">sycamore</text>
</g>
<!-- 21 -->
<g id="node22" class="node">
<title>21</title>
<ellipse fill="none" stroke="black" stroke-dasharray="5,2" cx="1468.25" cy="-306" rx="62.29" ry="18"/>
<text text-anchor="middle" x="1468.25" y="-302.3" font-family="Times,serif" font-size="14.00">sycamore&#45;web</text>
</g>
<!-- 3&#45;&gt;21 -->
<g id="edge12" class="edge">
<title>3&#45;&gt;21</title>
<path fill="none" stroke="black" stroke-dasharray="1,5" d="M1359.11,-363.17C1378.9,-352.99 1406.11,-338.98 1428.42,-327.5"/>
<polygon fill="black" stroke="black" points="1429.96,-330.64 1437.25,-322.95 1426.76,-324.42 1429.96,-330.64"/>
</g>
<!-- 20 -->
<g id="node21" class="node">
<title>20</title>
<ellipse fill="none" stroke="black" cx="1329.25" cy="-162" rx="75.29" ry="18"/>
<text text-anchor="middle" x="1329.25" y="-158.3" font-family="Times,serif" font-size="14.00">sycamore&#45;reactive</text>
</g>
<!-- 4&#45;&gt;20 -->
<g id="edge14" class="edge">
<title>4&#45;&gt;20</title>
<path fill="none" stroke="black" d="M1128.52,-431.7C1146.26,-390.86 1194.99,-286.6 1258.25,-216 1268.37,-204.7 1281.23,-194.24 1293.22,-185.65"/>
<polygon fill="black" stroke="black" points="1295.1,-188.61 1301.33,-180.04 1291.11,-182.85 1295.1,-188.61"/>
</g>
<!-- 23 -->
<g id="node24" class="node">
<title>23</title>
<ellipse fill="none" stroke="black" cx="1075.25" cy="-378" rx="35.19" ry="18"/>
<text text-anchor="middle" x="1075.25" y="-374.3" font-family="Times,serif" font-size="14.00">futures</text>
</g>
<!-- 4&#45;&gt;23 -->
<g id="edge13" class="edge">
<title>4&#45;&gt;23</title>
<path fill="none" stroke="black" d="M1110.11,-432.05C1104.72,-423.85 1098.13,-413.83 1092.14,-404.71"/>
<polygon fill="black" stroke="black" points="1095.21,-403.01 1086.79,-396.57 1089.36,-406.85 1095.21,-403.01"/>
</g>
<!-- 5&#45;&gt;3 -->
<g id="edge15" class="edge">
<title>5&#45;&gt;3</title>
<path fill="none" stroke="black" d="M1296.62,-432.05C1302.05,-423.97 1308.66,-414.12 1314.71,-405.11"/>
<polygon fill="black" stroke="black" points="1317.46,-407.3 1320.13,-397.05 1311.65,-403.4 1317.46,-407.3"/>
</g>
<!-- 24 -->
<g id="node25" class="node">
<title>24</title>
<ellipse fill="none" stroke="black" cx="1734.25" cy="-18" rx="30.59" ry="18"/>
<text text-anchor="middle" x="1734.25" y="-14.3" font-family="Times,serif" font-size="14.00">cfg&#45;if</text>
</g>
<!-- 6&#45;&gt;24 -->
<g id="edge16" class="edge">
<title>6&#45;&gt;24</title>
<path fill="none" stroke="black" d="M1734.25,-71.7C1734.25,-64.41 1734.25,-55.73 1734.25,-47.54"/>
<polygon fill="black" stroke="black" points="1737.75,-47.62 1734.25,-37.62 1730.75,-47.62 1737.75,-47.62"/>
</g>
<!-- 8 -->
<g id="node9" class="node">
<title>8</title>
<ellipse fill="none" stroke="black" cx="522.25" cy="-306" rx="29.5" ry="18"/>
<text text-anchor="middle" x="522.25" y="-302.3" font-family="Times,serif" font-size="14.00">bytes</text>
</g>
<!-- 9 -->
<g id="node10" class="node">
<title>9</title>
<ellipse fill="none" stroke="black" cx="986.25" cy="-90" rx="53.09" ry="18"/>
<text text-anchor="middle" x="986.25" y="-86.3" font-family="Times,serif" font-size="14.00">futures&#45;core</text>
</g>
<!-- 25 -->
<g id="node26" class="node">
<title>25</title>
<ellipse fill="none" stroke="black" cx="1129.25" cy="-162" rx="65.79" ry="18"/>
<text text-anchor="middle" x="1129.25" y="-158.3" font-family="Times,serif" font-size="14.00">futures&#45;channel</text>
</g>
<!-- 10&#45;&gt;25 -->
<g id="edge17" class="edge">
<title>10&#45;&gt;25</title>
<path fill="none" stroke="black" stroke-dasharray="1,5" d="M967.83,-220.65C998.91,-209.55 1044.89,-193.13 1079.83,-180.65"/>
<polygon fill="black" stroke="black" points="1080.63,-184.08 1088.87,-177.42 1078.27,-177.49 1080.63,-184.08"/>
</g>
<!-- 26 -->
<g id="node27" class="node">
<title>26</title>
<ellipse fill="none" stroke="black" cx="464.25" cy="-162" rx="44.69" ry="18"/>
<text text-anchor="middle" x="464.25" y="-158.3" font-family="Times,serif" font-size="14.00">futures&#45;io</text>
</g>
<!-- 10&#45;&gt;26 -->
<g id="edge18" class="edge">
<title>10&#45;&gt;26</title>
<path fill="none" stroke="black" stroke-dasharray="1,5" d="M884.21,-229.58C806.06,-223.49 648.79,-208.64 518.25,-180 514.94,-179.28 511.55,-178.44 508.16,-177.53"/>
<polygon fill="black" stroke="black" points="509.44,-174.26 498.86,-174.88 507.52,-180.99 509.44,-174.26"/>
</g>
<!-- 28 -->
<g id="node29" class="node">
<title>28</title>
<ellipse fill="none" stroke="black" cx="579.25" cy="-162" rx="51.99" ry="18"/>
<text text-anchor="middle" x="579.25" y="-158.3" font-family="Times,serif" font-size="14.00">futures&#45;task</text>
</g>
<!-- 10&#45;&gt;28 -->
<g id="edge19" class="edge">
<title>10&#45;&gt;28</title>
<path fill="none" stroke="black" d="M887.55,-226.08C829.68,-217.01 727.04,-199.9 640.25,-180 636.49,-179.14 632.62,-178.19 628.73,-177.21"/>
<polygon fill="black" stroke="black" points="629.86,-173.88 619.29,-174.72 628.07,-180.65 629.86,-173.88"/>
</g>
<!-- 29 -->
<g id="node30" class="node">
<title>29</title>
<ellipse fill="none" stroke="black" stroke-dasharray="5,2" cx="689.25" cy="-162" rx="40.09" ry="18"/>
<text text-anchor="middle" x="689.25" y="-158.3" font-family="Times,serif" font-size="14.00">memchr</text>
</g>
<!-- 10&#45;&gt;29 -->
<g id="edge20" class="edge">
<title>10&#45;&gt;29</title>
<path fill="none" stroke="black" stroke-dasharray="1,5" d="M893.05,-222.94C853.46,-212.82 791.37,-196.41 738.25,-180 735.83,-179.25 733.36,-178.47 730.87,-177.66"/>
<polygon fill="black" stroke="black" points="732.01,-174.35 721.42,-174.5 729.8,-180.99 732.01,-174.35"/>
</g>
<!-- 30 -->
<g id="node31" class="node">
<title>30</title>
<ellipse fill="none" stroke="black" cx="811.25" cy="-162" rx="63.89" ry="18"/>
<text text-anchor="middle" x="811.25" y="-158.3" font-family="Times,serif" font-size="14.00">pin&#45;project&#45;lite</text>
</g>
<!-- 10&#45;&gt;30 -->
<g id="edge21" class="edge">
<title>10&#45;&gt;30</title>
<path fill="none" stroke="black" d="M907.37,-218.15C890.18,-208.29 867.34,-195.18 848.23,-184.22"/>
<polygon fill="black" stroke="black" points="850.08,-181.25 839.66,-179.3 846.59,-187.32 850.08,-181.25"/>
</g>
<!-- 31 -->
<g id="node32" class="node">
<title>31</title>
<ellipse fill="none" stroke="black" cx="933.25" cy="-162" rx="40.09" ry="18"/>
<text text-anchor="middle" x="933.25" y="-158.3" font-family="Times,serif" font-size="14.00">pin&#45;utils</text>
</g>
<!-- 10&#45;&gt;31 -->
<g id="edge22" class="edge">
<title>10&#45;&gt;31</title>
<path fill="none" stroke="black" d="M933.25,-215.7C933.25,-208.41 933.25,-199.73 933.25,-191.54"/>
<polygon fill="black" stroke="black" points="936.75,-191.62 933.25,-181.62 929.75,-191.62 936.75,-191.62"/>
</g>
<!-- 32 -->
<g id="node33" class="node">
<title>32</title>
<ellipse fill="none" stroke="black" stroke-dasharray="5,2" cx="1018.25" cy="-162" rx="27" ry="18"/>
<text text-anchor="middle" x="1018.25" y="-158.3" font-family="Times,serif" font-size="14.00">slab</text>
</g>
<!-- 10&#45;&gt;32 -->
<g id="edge23" class="edge">
<title>10&#45;&gt;32</title>
<path fill="none" stroke="black" stroke-dasharray="1,5" d="M952.53,-217.12C964.44,-207.31 979.84,-194.62 992.75,-184"/>
<polygon fill="black" stroke="black" points="994.95,-186.72 1000.45,-177.66 990.5,-181.31 994.95,-186.72"/>
</g>
<!-- 11&#45;&gt;8 -->
<g id="edge24" class="edge">
<title>11&#45;&gt;8</title>
<path fill="none" stroke="black" d="M490.75,-360.76C495.62,-352.46 501.65,-342.15 507.14,-332.79"/>
<polygon fill="black" stroke="black" points="509.99,-334.85 512.02,-324.45 503.95,-331.31 509.99,-334.85"/>
</g>
<!-- 33 -->
<g id="node34" class="node">
<title>33</title>
<ellipse fill="none" stroke="black" cx="287.25" cy="-306" rx="27" ry="18"/>
<text text-anchor="middle" x="287.25" y="-302.3" font-family="Times,serif" font-size="14.00">fnv</text>
</g>
<!-- 11&#45;&gt;33 -->
<g id="edge25" class="edge">
<title>11&#45;&gt;33</title>
<path fill="none" stroke="black" d="M460.16,-366.38C455.32,-364.13 450.15,-361.87 445.25,-360 392.42,-339.87 376.07,-344.13 323.25,-324 321.71,-323.42 320.15,-322.79 318.59,-322.14"/>
<polygon fill="black" stroke="black" points="320.28,-319.07 309.71,-318.23 317.45,-325.47 320.28,-319.07"/>
</g>
<!-- 34 -->
<g id="node35" class="node">
<title>34</title>
<ellipse fill="none" stroke="black" cx="596.25" cy="-306" rx="27" ry="18"/>
<text text-anchor="middle" x="596.25" y="-302.3" font-family="Times,serif" font-size="14.00">itoa</text>
</g>
<!-- 11&#45;&gt;34 -->
<g id="edge26" class="edge">
<title>11&#45;&gt;34</title>
<path fill="none" stroke="black" d="M500.75,-365.13C518.93,-354.06 546.26,-337.42 567.04,-324.78"/>
<polygon fill="black" stroke="black" points="568.63,-327.91 575.35,-319.72 564.99,-321.93 568.63,-327.91"/>
</g>
<!-- 12 -->
<g id="node13" class="node">
<title>12</title>
<ellipse fill="none" stroke="black" cx="742.25" cy="-306" rx="29.5" ry="18"/>
<text text-anchor="middle" x="742.25" y="-302.3" font-family="Times,serif" font-size="14.00">serde</text>
</g>
<!-- 13&#45;&gt;12 -->
<g id="edge29" class="edge">
<title>13&#45;&gt;12</title>
<path fill="none" stroke="black" stroke-dasharray="5,2" d="M739.23,-359.7C739.65,-352.41 740.15,-343.73 740.61,-335.54"/>
<polygon fill="black" stroke="black" points="744.11,-335.8 741.18,-325.62 737.12,-335.4 744.11,-335.8"/>
</g>
<!-- 13&#45;&gt;34 -->
<g id="edge27" class="edge">
<title>13&#45;&gt;34</title>
<path fill="none" stroke="black" stroke-dasharray="5,2" d="M709.85,-363C686.16,-351.33 652.43,-334.7 627.88,-322.6"/>
<polygon fill="black" stroke="black" points="629.52,-319.5 619.01,-318.22 626.43,-325.78 629.52,-319.5"/>
</g>
<!-- 35 -->
<g id="node36" class="node">
<title>35</title>
<ellipse fill="none" stroke="black" cx="668.25" cy="-306" rx="27" ry="18"/>
<text text-anchor="middle" x="668.25" y="-302.3" font-family="Times,serif" font-size="14.00">ryu</text>
</g>
<!-- 13&#45;&gt;35 -->
<g id="edge28" class="edge">
<title>13&#45;&gt;35</title>
<path fill="none" stroke="black" stroke-dasharray="5,2" d="M722.01,-360.76C712.67,-351.42 700.8,-339.55 690.59,-329.34"/>
<polygon fill="black" stroke="black" points="693.11,-326.92 683.57,-322.32 688.16,-331.87 693.11,-326.92"/>
</g>
<!-- 14&#45;&gt;12 -->
<g id="edge33" class="edge">
<title>14&#45;&gt;12</title>
<path fill="none" stroke="black" d="M630.98,-361.46C654.39,-350.01 686.12,-334.47 709.71,-322.92"/>
<polygon fill="black" stroke="black" points="711.12,-326.13 718.56,-318.59 708.04,-319.85 711.12,-326.13"/>
</g>
<!-- 14&#45;&gt;34 -->
<g id="edge31" class="edge">
<title>14&#45;&gt;34</title>
<path fill="none" stroke="black" d="M598.5,-359.7C598.19,-352.41 597.82,-343.73 597.47,-335.54"/>
<polygon fill="black" stroke="black" points="600.97,-335.46 597.04,-325.62 593.97,-335.76 600.97,-335.46"/>
</g>
<!-- 14&#45;&gt;35 -->
<g id="edge32" class="edge">
<title>14&#45;&gt;35</title>
<path fill="none" stroke="black" d="M615.95,-360.05C625.05,-350.82 636.42,-339.29 646.23,-329.33"/>
<polygon fill="black" stroke="black" points="648.44,-332.08 652.96,-322.5 643.45,-327.17 648.44,-332.08"/>
</g>
<!-- 36 -->
<g id="node37" class="node">
<title>36</title>
<ellipse fill="none" stroke="black" cx="403.25" cy="-306" rx="71.49" ry="18"/>
<text text-anchor="middle" x="403.25" y="-302.3" font-family="Times,serif" font-size="14.00">form_urlencoded</text>
</g>
<!-- 14&#45;&gt;36 -->
<g id="edge30" class="edge">
<title>14&#45;&gt;36</title>
<path fill="none" stroke="black" d="M559.11,-362.67C528.72,-351.81 486.77,-336.83 454.04,-325.14"/>
<polygon fill="black" stroke="black" points="455.35,-321.89 444.75,-321.82 452.99,-328.48 455.35,-321.89"/>
</g>
<!-- 16&#45;&gt;36 -->
<g id="edge34" class="edge">
<title>16&#45;&gt;36</title>
<path fill="none" stroke="black" d="M337.45,-363.17C348.11,-354.06 362.37,-341.9 374.88,-331.21"/>
<polygon fill="black" stroke="black" points="377.12,-333.9 382.46,-324.75 372.58,-328.58 377.12,-333.9"/>
</g>
<!-- 37 -->
<g id="node38" class="node">
<title>37</title>
<ellipse fill="none" stroke="black" cx="215.25" cy="-306" rx="27" ry="18"/>
<text text-anchor="middle" x="215.25" y="-302.3" font-family="Times,serif" font-size="14.00">idna</text>
</g>
<!-- 16&#45;&gt;37 -->
<g id="edge35" class="edge">
<title>16&#45;&gt;37</title>
<path fill="none" stroke="black" d="M302.78,-364.81C286.39,-353.98 262.19,-338 243.39,-325.59"/>
<polygon fill="black" stroke="black" points="245.39,-322.71 235.12,-320.12 241.53,-328.55 245.39,-322.71"/>
</g>
<!-- 17 -->
<g id="node18" class="node">
<title>17</title>
<ellipse fill="none" stroke="black" cx="1512.25" cy="-90" rx="30.59" ry="18"/>
<text text-anchor="middle" x="1512.25" y="-86.3" font-family="Times,serif" font-size="14.00">ahash</text>
</g>
<!-- 18 -->
<g id="node19" class="node">
<title>18</title>
<ellipse fill="none" stroke="black" cx="1607.25" cy="-90" rx="46.29" ry="18"/>
<text text-anchor="middle" x="1607.25" y="-86.3" font-family="Times,serif" font-size="14.00">indexmap</text>
</g>
<!-- 39 -->
<g id="node40" class="node">
<title>39</title>
<ellipse fill="none" stroke="black" cx="1607.25" cy="-18" rx="49.29" ry="18"/>
<text text-anchor="middle" x="1607.25" y="-14.3" font-family="Times,serif" font-size="14.00">hashbrown</text>
</g>
<!-- 18&#45;&gt;39 -->
<g id="edge36" class="edge">
<title>18&#45;&gt;39</title>
<path fill="none" stroke="black" d="M1607.25,-71.7C1607.25,-64.41 1607.25,-55.73 1607.25,-47.54"/>
<polygon fill="black" stroke="black" points="1610.75,-47.62 1607.25,-37.62 1603.75,-47.62 1610.75,-47.62"/>
</g>
<!-- 19 -->
<g id="node20" class="node">
<title>19</title>
<ellipse fill="none" stroke="black" cx="1330.25" cy="-234" rx="63.09" ry="18"/>
<text text-anchor="middle" x="1330.25" y="-230.3" font-family="Times,serif" font-size="14.00">sycamore&#45;core</text>
</g>
<!-- 19&#45;&gt;20 -->
<g id="edge37" class="edge">
<title>19&#45;&gt;20</title>
<path fill="none" stroke="black" d="M1330,-215.7C1329.89,-208.41 1329.77,-199.73 1329.65,-191.54"/>
<polygon fill="black" stroke="black" points="1333.15,-191.57 1329.51,-181.62 1326.15,-191.67 1333.15,-191.57"/>
</g>
<!-- 20&#45;&gt;17 -->
<g id="edge38" class="edge">
<title>20&#45;&gt;17</title>
<path fill="none" stroke="black" d="M1370.12,-146.43C1398.83,-136.05 1438.05,-121.6 1472.25,-108 1474.03,-107.29 1475.85,-106.55 1477.69,-105.8"/>
<polygon fill="black" stroke="black" points="1478.92,-109.08 1486.81,-102.01 1476.23,-102.62 1478.92,-109.08"/>
</g>
<!-- 20&#45;&gt;18 -->
<g id="edge40" class="edge">
<title>20&#45;&gt;18</title>
<path fill="none" stroke="black" d="M1383.57,-149.15C1428.89,-139.01 1495.05,-123.62 1552.25,-108 1555.32,-107.16 1558.48,-106.27 1561.66,-105.35"/>
<polygon fill="black" stroke="black" points="1562.39,-108.78 1570.98,-102.57 1560.4,-102.07 1562.39,-108.78"/>
</g>
<!-- 40 -->
<g id="node41" class="node">
<title>40</title>
<ellipse fill="none" stroke="black" cx="1223.25" cy="-90" rx="42.49" ry="18"/>
<text text-anchor="middle" x="1223.25" y="-86.3" font-family="Times,serif" font-size="14.00">bumpalo</text>
</g>
<!-- 20&#45;&gt;40 -->
<g id="edge39" class="edge">
<title>20&#45;&gt;40</title>
<path fill="none" stroke="black" d="M1304.39,-144.59C1289.6,-134.82 1270.68,-122.32 1254.83,-111.86"/>
<polygon fill="black" stroke="black" points="1256.96,-109.07 1246.68,-106.48 1253.1,-114.91 1256.96,-109.07"/>
</g>
<!-- 41 -->
<g id="node42" class="node">
<title>41</title>
<ellipse fill="none" stroke="black" cx="1322.25" cy="-90" rx="38.99" ry="18"/>
<text text-anchor="middle" x="1322.25" y="-86.3" font-family="Times,serif" font-size="14.00">slotmap</text>
</g>
<!-- 20&#45;&gt;41 -->
<g id="edge41" class="edge">
<title>20&#45;&gt;41</title>
<path fill="none" stroke="black" d="M1327.51,-143.7C1326.79,-136.41 1325.92,-127.73 1325.1,-119.54"/>
<polygon fill="black" stroke="black" points="1328.58,-119.21 1324.11,-109.61 1321.62,-119.91 1328.58,-119.21"/>
</g>
<!-- 42 -->
<g id="node43" class="node">
<title>42</title>
<ellipse fill="none" stroke="black" cx="1421.25" cy="-90" rx="42.49" ry="18"/>
<text text-anchor="middle" x="1421.25" y="-86.3" font-family="Times,serif" font-size="14.00">smallvec</text>
</g>
<!-- 20&#45;&gt;42 -->
<g id="edge42" class="edge">
<title>20&#45;&gt;42</title>
<path fill="none" stroke="black" d="M1351.05,-144.41C1363.4,-135.02 1378.99,-123.15 1392.35,-112.99"/>
<polygon fill="black" stroke="black" points="1394.13,-116.03 1399.97,-107.19 1389.89,-110.46 1394.13,-116.03"/>
</g>
<!-- 21&#45;&gt;19 -->
<g id="edge45" class="edge">
<title>21&#45;&gt;19</title>
<path fill="none" stroke="black" stroke-dasharray="5,2" d="M1438.3,-289.81C1418.41,-279.72 1392.06,-266.36 1370.36,-255.35"/>
<polygon fill="black" stroke="black" points="1371.98,-252.25 1361.48,-250.84 1368.82,-258.49 1371.98,-252.25"/>
</g>
<!-- 22 -->
<g id="node23" class="node">
<title>22</title>
<ellipse fill="none" stroke="black" cx="1714.25" cy="-234" rx="39.79" ry="18"/>
<text text-anchor="middle" x="1714.25" y="-230.3" font-family="Times,serif" font-size="14.00">web&#45;sys</text>
</g>
<!-- 21&#45;&gt;22 -->
<g id="edge46" class="edge">
<title>21&#45;&gt;22</title>
<path fill="none" stroke="black" stroke-dasharray="5,2" d="M1511.66,-292.65C1556.29,-279.95 1625.42,-260.27 1670.26,-247.52"/>
<polygon fill="black" stroke="black" points="1670.99,-250.95 1679.65,-244.84 1669.08,-244.21 1670.99,-250.95"/>
</g>
<!-- 43 -->
<g id="node44" class="node">
<title>43</title>
<ellipse fill="none" stroke="black" stroke-dasharray="5,2" cx="1468.25" cy="-234" rx="53.89" ry="18"/>
<text text-anchor="middle" x="1468.25" y="-230.3" font-family="Times,serif" font-size="14.00">html&#45;escape</text>
</g>
<!-- 21&#45;&gt;43 -->
<g id="edge43" class="edge">
<title>21&#45;&gt;43</title>
<path fill="none" stroke="black" stroke-dasharray="5,2" d="M1468.25,-287.7C1468.25,-280.41 1468.25,-271.73 1468.25,-263.54"/>
<polygon fill="black" stroke="black" points="1471.75,-263.62 1468.25,-253.62 1464.75,-263.62 1471.75,-263.62"/>
</g>
<!-- 44 -->
<g id="node45" class="node">
<title>44</title>
<ellipse fill="none" stroke="black" stroke-dasharray="5,2" cx="1584.25" cy="-234" rx="44.39" ry="18"/>
<text text-anchor="middle" x="1584.25" y="-230.3" font-family="Times,serif" font-size="14.00">once_cell</text>
</g>
<!-- 21&#45;&gt;44 -->
<g id="edge44" class="edge">
<title>21&#45;&gt;44</title>
<path fill="none" stroke="black" stroke-dasharray="5,2" d="M1494.28,-289.29C1510.88,-279.27 1532.57,-266.18 1550.5,-255.37"/>
<polygon fill="black" stroke="black" points="1552.23,-258.41 1558.98,-250.25 1548.61,-252.42 1552.23,-258.41"/>
</g>
<!-- 22&#45;&gt;1 -->
<g id="edge47" class="edge">
<title>22&#45;&gt;1</title>
<path fill="none" stroke="black" d="M1717.71,-215.7C1719.18,-208.32 1720.94,-199.52 1722.6,-191.25"/>
<polygon fill="black" stroke="black" points="1726,-192.08 1724.53,-181.59 1719.13,-190.71 1726,-192.08"/>
</g>
<!-- 45 -->
<g id="node46" class="node">
<title>45</title>
<ellipse fill="none" stroke="black" stroke-dasharray="5,2" cx="1073.25" cy="-306" rx="68.49" ry="18"/>
<text text-anchor="middle" x="1073.25" y="-302.3" font-family="Times,serif" font-size="14.00">futures&#45;executor</text>
</g>
<!-- 23&#45;&gt;45 -->
<g id="edge48" class="edge">
<title>23&#45;&gt;45</title>
<path fill="none" stroke="black" stroke-dasharray="1,5" d="M1074.75,-359.7C1074.54,-352.41 1074.29,-343.73 1074.06,-335.54"/>
<polygon fill="black" stroke="black" points="1077.56,-335.51 1073.78,-325.62 1070.56,-335.71 1077.56,-335.51"/>
</g>
<!-- 25&#45;&gt;9 -->
<g id="edge49" class="edge">
<title>25&#45;&gt;9</title>
<path fill="none" stroke="black" d="M1098.22,-145.81C1076.99,-135.42 1048.66,-121.55 1025.82,-110.37"/>
<polygon fill="black" stroke="black" points="1027.63,-107.36 1017.11,-106.11 1024.55,-113.65 1027.63,-107.36"/>
</g>
<!-- 27 -->
<g id="node28" class="node">
<title>27</title>
<ellipse fill="none" stroke="black" cx="1110.25" cy="-90" rx="52.79" ry="18"/>
<text text-anchor="middle" x="1110.25" y="-86.3" font-family="Times,serif" font-size="14.00">futures&#45;sink</text>
</g>
<!-- 25&#45;&gt;27 -->
<g id="edge50" class="edge">
<title>25&#45;&gt;27</title>
<path fill="none" stroke="black" stroke-dasharray="1,5" d="M1124.55,-143.7C1122.52,-136.24 1120.1,-127.32 1117.84,-118.97"/>
<polygon fill="black" stroke="black" points="1121.28,-118.3 1115.28,-109.57 1114.53,-120.13 1121.28,-118.3"/>
</g>
<!-- 38 -->
<g id="node39" class="node">
<title>38</title>
<ellipse fill="none" stroke="black" cx="403.25" cy="-234" rx="71.49" ry="18"/>
<text text-anchor="middle" x="403.25" y="-230.3" font-family="Times,serif" font-size="14.00">percent&#45;encoding</text>
</g>
<!-- 36&#45;&gt;38 -->
<g id="edge51" class="edge">
<title>36&#45;&gt;38</title>
<path fill="none" stroke="black" d="M403.25,-287.7C403.25,-280.41 403.25,-271.73 403.25,-263.54"/>
<polygon fill="black" stroke="black" points="406.75,-263.62 403.25,-253.62 399.75,-263.62 406.75,-263.62"/>
</g>
<!-- 46 -->
<g id="node47" class="node">
<title>46</title>
<ellipse fill="none" stroke="black" cx="55.25" cy="-234" rx="55.49" ry="18"/>
<text text-anchor="middle" x="55.25" y="-230.3" font-family="Times,serif" font-size="14.00">unicode&#45;bidi</text>
</g>
<!-- 37&#45;&gt;46 -->
<g id="edge52" class="edge">
<title>37&#45;&gt;46</title>
<path fill="none" stroke="black" d="M193,-295.27C168.42,-284.51 128.27,-266.95 97.63,-253.55"/>
<polygon fill="black" stroke="black" points="99.19,-250.41 88.63,-249.6 96.38,-256.82 99.19,-250.41"/>
</g>
<!-- 47 -->
<g id="node48" class="node">
<title>47</title>
<ellipse fill="none" stroke="black" cx="219.25" cy="-234" rx="90.98" ry="18"/>
<text text-anchor="middle" x="219.25" y="-230.3" font-family="Times,serif" font-size="14.00">unicode&#45;normalization</text>
</g>
<!-- 37&#45;&gt;47 -->
<g id="edge53" class="edge">
<title>37&#45;&gt;47</title>
<path fill="none" stroke="black" d="M216.23,-287.7C216.65,-280.41 217.15,-271.73 217.61,-263.54"/>
<polygon fill="black" stroke="black" points="221.11,-263.8 218.18,-253.62 214.12,-263.4 221.11,-263.8"/>
</g>
<!-- 48 -->
<g id="node49" class="node">
<title>48</title>
<ellipse fill="none" stroke="black" stroke-dasharray="5,2" cx="1470.25" cy="-162" rx="48.19" ry="18"/>
<text text-anchor="middle" x="1470.25" y="-158.3" font-family="Times,serif" font-size="14.00">utf8&#45;width</text>
</g>
<!-- 43&#45;&gt;48 -->
<g id="edge54" class="edge">
<title>43&#45;&gt;48</title>
<path fill="none" stroke="black" stroke-dasharray="5,2" d="M1468.74,-215.7C1468.95,-208.41 1469.2,-199.73 1469.43,-191.54"/>
<polygon fill="black" stroke="black" points="1472.93,-191.71 1469.71,-181.62 1465.93,-191.51 1472.93,-191.71"/>
</g>
<!-- 45&#45;&gt;10 -->
<g id="edge55" class="edge">
<title>45&#45;&gt;10</title>
<path fill="none" stroke="black" stroke-dasharray="5,2" d="M1042.52,-289.64C1021.68,-279.22 993.96,-265.36 971.66,-254.21"/>
<polygon fill="black" stroke="black" points="973.38,-251.15 962.87,-249.81 970.25,-257.41 973.38,-251.15"/>
</g>
<!-- 49 -->
<g id="node50" class="node">
<title>49</title>
<ellipse fill="none" stroke="black" cx="219.25" cy="-162" rx="36.29" ry="18"/>
<text text-anchor="middle" x="219.25" y="-158.3" font-family="Times,serif" font-size="14.00">tinyvec</text>
</g>
<!-- 47&#45;&gt;49 -->
<g id="edge56" class="edge">
<title>47&#45;&gt;49</title>
<path fill="none" stroke="black" d="M219.25,-215.7C219.25,-208.41 219.25,-199.73 219.25,-191.54"/>
<polygon fill="black" stroke="black" points="222.75,-191.62 219.25,-181.62 215.75,-191.62 222.75,-191.62"/>
</g>
<!-- 50 -->
<g id="node51" class="node">
<title>50</title>
<ellipse fill="none" stroke="black" stroke-dasharray="5,2" cx="219.25" cy="-90" rx="66.89" ry="18"/>
<text text-anchor="middle" x="219.25" y="-86.3" font-family="Times,serif" font-size="14.00">tinyvec_macros</text>
</g>
<!-- 49&#45;&gt;50 -->
<g id="edge57" class="edge">
<title>49&#45;&gt;50</title>
<path fill="none" stroke="black" stroke-dasharray="1,5" d="M219.25,-143.7C219.25,-136.41 219.25,-127.73 219.25,-119.54"/>
<polygon fill="black" stroke="black" points="222.75,-119.62 219.25,-109.62 215.75,-119.62 222.75,-119.62"/>
</g>
</g>
</svg>
